<svg 
          width="6" 
          height="24" fill="none" 
          xmlns="http://www.w3.org/2000/svg">
          <path d="M 3 6 C 4.650000035762787 6 6 4.650000035762787 6 3 C 6 1.3499999642372131 4.650000035762787 0 3 0 C 1.3499999642372131 0 0 1.3499999642372131 0 3 C 0 4.650000035762787 1.3499999642372131 6 3 6 Z M 3 9 C 1.3499999642372131 9 0 10.349999964237213 0 12 C 0 13.650000035762787 1.3499999642372131 15 3 15 C 4.650000035762787 15 6 13.650000035762787 6 12 C 6 10.349999964237213 4.650000035762787 9 3 9 Z M 3 18 C 1.3499999642372131 18 0 19.349999964237213 0 21 C 0 22.650000035762787 1.3499999642372131 24 3 24 C 4.650000035762787 24 6 22.650000035762787 6 21 C 6 19.349999964237213 4.650000035762787 18 3 18 Z" fill="rgb(161.0000056028366,32.00000189244747,26.000000350177288)"/>
        </svg>